<svg width="404" height="282" viewBox="0 0 404 282" fill="none" xmlns="http://www.w3.org/2000/svg">
<g clip-path="url(#clip0_198_133)">
<path d="M0 281.217C0 281.581 0.292646 281.873 0.657072 281.873H403.343C403.707 281.873 404 281.581 404 281.217C404 280.852 403.707 280.56 403.343 280.56H0.657072C0.292646 280.56 0 280.852 0 281.217Z" fill="#3F3D58"/>
<path d="M243.288 43.6528L257.429 48.2983V27.9561H244.596L243.288 43.6528Z" fill="#F8A8AB"/>
<path d="M255.678 33.5836C263.461 33.5836 269.769 27.2797 269.769 19.5035C269.769 11.7272 263.461 5.42334 255.678 5.42334C247.896 5.42334 241.587 11.7272 241.587 19.5035C241.587 27.2797 247.896 33.5836 255.678 33.5836Z" fill="#F8A8AB"/>
<path d="M252.089 20.6071L254.033 22.963L257.545 16.8167C257.545 16.8167 262.028 17.0484 262.028 13.7215C262.028 10.3946 266.142 10.3008 266.142 10.3008C266.142 10.3008 271.967 0.137904 259.902 2.81379C259.902 2.81379 251.532 -2.91316 247.374 1.98068C247.374 1.98068 234.613 8.40281 238.263 19.5809L244.331 31.1065L245.706 28.4968C245.706 28.4968 244.872 17.545 252.089 20.596V20.6071Z" fill="#1159A8"/>
<path d="M250.61 254.778H239.047V271.17H250.61V254.778Z" fill="#F8A8AB"/>
<path d="M249.329 280.56C247.352 280.736 237.457 281.52 236.96 279.252C236.507 277.172 237.175 274.998 237.269 274.701C238.219 265.244 238.572 265.139 238.788 265.078C239.125 264.979 240.107 265.448 241.703 266.474L241.803 266.54L241.825 266.656C241.852 266.805 242.559 270.276 245.911 269.74C248.208 269.376 248.953 268.869 249.19 268.62C248.997 268.532 248.754 268.378 248.583 268.113C248.335 267.727 248.29 267.23 248.456 266.634C248.887 265.062 250.179 262.739 250.234 262.645L250.383 262.38L263.525 271.241L271.641 273.558C272.254 273.735 272.746 274.171 272.994 274.756C273.337 275.572 273.127 276.521 272.464 277.117C270.99 278.441 268.063 280.709 264.988 280.99C264.171 281.067 263.088 281.095 261.874 281.095C256.799 281.095 249.389 280.571 249.334 280.56H249.329Z" fill="#1159A8"/>
<path d="M265.374 113.458L235.044 111.907C235.044 111.907 230.395 129.518 236.27 147.869L236.977 258.375H254.116L270.272 144.382L265.374 113.458Z" fill="#1159A8"/>
<path d="M260.261 39.7412L243.614 30.9136C243.614 30.9136 225.674 57.1097 228.153 71.3002C230.638 85.4907 235.044 111.907 235.044 111.907L271.768 113.458L265.358 61.4353L260.261 39.7412Z" fill="#E2E3E4"/>
<path d="M258.837 254.778H247.274V271.17H258.837V254.778Z" fill="#F8A8AB"/>
<path d="M257.556 280.56C255.579 280.736 245.684 281.52 245.187 279.252C244.735 277.172 245.403 274.998 245.497 274.701C246.446 265.244 246.8 265.139 247.015 265.078C247.352 264.979 248.335 265.448 249.93 266.474L250.03 266.54L250.052 266.656C250.08 266.805 250.786 270.276 254.138 269.74C256.435 269.376 257.18 268.869 257.418 268.62C257.225 268.532 256.982 268.378 256.81 268.113C256.562 267.727 256.518 267.23 256.683 266.634C257.114 265.062 258.406 262.739 258.461 262.645L258.61 262.38L271.752 271.241L279.869 273.558C280.482 273.735 280.973 274.171 281.221 274.756C281.564 275.572 281.354 276.521 280.691 277.117C279.217 278.441 276.291 280.709 273.215 280.99C272.398 281.067 271.316 281.095 270.101 281.095C265.027 281.095 257.617 280.571 257.561 280.56H257.556Z" fill="#1159A8"/>
<path d="M271.768 113.458L235.044 111.907C235.044 111.907 230.395 129.518 236.27 147.869L243.371 258.375H260.51L276.666 144.382L271.768 113.458Z" fill="#1159A8"/>
<path d="M267.936 185.635C265.369 185.635 262.569 185.006 259.803 184.388C257.754 183.93 255.949 183.814 254.502 183.726C252.305 183.588 250.565 183.478 249.599 182.192C248.644 180.923 248.644 178.766 249.599 174.512C250.869 168.862 253.696 159.836 257.153 152.41C261.62 142.832 265.91 138.424 269.913 139.323C275.274 140.526 277.411 149.469 278.212 154.689C279.327 161.977 279.228 170.639 277.969 176.245C276.302 183.665 272.475 185.63 267.931 185.63H267.936V185.635ZM268.914 140.873C265.971 140.873 262.359 145.166 258.66 153.111C255.253 160.421 252.47 169.309 251.217 174.876C250.416 178.452 250.328 180.399 250.924 181.199C251.432 181.872 252.763 181.961 254.602 182.071C256.109 182.165 257.986 182.281 260.162 182.772C268.809 184.708 274.214 185.414 276.351 175.886C278.643 165.679 276.898 142.589 269.549 140.939C269.339 140.89 269.123 140.868 268.908 140.868H268.914V140.873Z" fill="#DFDFE0"/>
<path d="M302.905 254.242L220.55 254.783L207.756 248.902L215.211 172.923L222.709 173.304L299.862 177.226L302.905 254.242Z" fill="#00A2D3"/>
<path opacity="0.2" d="M220.55 254.783L207.756 248.902L215.211 172.923L222.709 173.304L220.55 254.783Z" fill="#272223"/>
<path d="M269.179 171.621C267.649 171.621 265.976 171.246 264.331 170.876C263.11 170.6 262.034 170.534 261.167 170.479C259.858 170.396 258.82 170.33 258.246 169.563C257.677 168.807 257.677 167.522 258.246 164.984C259.002 161.613 260.686 156.233 262.752 151.808C265.413 146.098 267.975 143.472 270.36 144.007C273.557 144.724 274.833 150.054 275.308 153.171C275.97 157.519 275.915 162.683 275.164 166.021C274.17 170.446 271.89 171.615 269.179 171.615V171.621ZM269.764 144.934C268.008 144.934 265.855 147.494 263.652 152.233C261.62 156.592 259.958 161.889 259.218 165.21C258.737 167.34 258.688 168.504 259.047 168.978C259.35 169.381 260.14 169.431 261.239 169.497C262.139 169.552 263.254 169.624 264.552 169.916C269.703 171.069 272.928 171.489 274.203 165.811C275.567 159.726 274.529 145.96 270.15 144.978C270.023 144.95 269.896 144.934 269.769 144.934H269.764Z" fill="#DFDFE0"/>
<path d="M290.023 212.532L240.925 212.852L233.294 209.348L237.739 164.046L242.211 164.272L288.212 166.611L290.023 212.532Z" fill="#E2E3E4"/>
<path opacity="0.2" d="M240.925 212.852L233.294 209.348L237.739 164.046L242.211 164.272L240.925 212.852Z" fill="#272223"/>
<path d="M272.05 141.044C272.873 145.083 271.365 148.774 268.693 149.287C266.02 149.8 263.188 146.936 262.371 142.898C262.023 141.287 262.078 139.621 262.531 138.032L259.279 120.867L267.682 119.538L269.996 136.597C271.04 137.899 271.741 139.422 272.05 141.044Z" fill="#F8A8AB"/>
<path d="M239.086 39.4209C239.086 39.4209 251.377 37.865 252.846 41.5341C254.315 45.2031 271.575 132.536 271.575 132.536H260.19L239.086 39.4209Z" fill="#E2E3E4"/>
<path d="M153.689 58.1135L141.342 62.1687V44.4141H152.546L153.689 58.1135Z" fill="#F8A8AB"/>
<path d="M142.872 49.3302C149.666 49.3302 155.174 43.8266 155.174 37.0377C155.174 30.2487 149.666 24.7451 142.872 24.7451C136.077 24.7451 130.57 30.2487 130.57 37.0377C130.57 43.8266 136.077 49.3302 142.872 49.3302Z" fill="#F8A8AB"/>
<path d="M146.251 35.8185C144.192 35.7578 142.839 33.6778 142.038 31.7798C141.237 29.8819 140.415 27.7025 138.504 26.9191C136.942 26.2791 134.186 30.6101 132.955 29.457C131.669 28.2543 132.922 22.0804 134.286 20.9714C135.65 19.8625 137.516 19.6473 139.272 19.5645C143.557 19.3659 147.869 19.7135 152.071 20.5907C154.672 21.1314 157.344 21.948 159.221 23.8239C161.596 26.2073 162.203 29.7991 162.374 33.1591C162.551 36.5964 162.352 40.1937 160.679 43.2006C159.006 46.2075 155.505 48.4255 152.148 47.6586C151.811 45.8379 152.154 43.9675 152.286 42.1137C152.413 40.2654 152.281 38.2682 151.149 36.795C150.017 35.3219 147.604 34.7371 146.29 36.0447" fill="#1159A8"/>
<path d="M161.386 40.0775C162.617 39.1781 164.091 38.4223 165.604 38.6099C167.239 38.8085 168.625 40.1547 169.044 41.7492C169.464 43.3437 168.995 45.0982 167.979 46.4003C166.968 47.7024 165.461 48.5631 163.871 48.9934C162.948 49.2417 161.938 49.3465 161.06 48.9713C159.768 48.4141 159.067 46.7644 159.575 45.4513" fill="#1159A8"/>
<path d="M149.614 255.688H138.052V272.08H149.614V255.688Z" fill="#F8A8AB"/>
<path d="M126.787 282C125.572 282 124.49 281.972 123.673 281.895C120.603 281.614 117.671 279.346 116.197 278.022C115.534 277.426 115.324 276.477 115.667 275.66C115.915 275.076 116.407 274.634 117.019 274.463L125.136 272.146L138.278 263.285L138.427 263.55C138.482 263.649 139.774 265.972 140.205 267.539C140.37 268.135 140.326 268.631 140.078 269.018C139.907 269.282 139.664 269.437 139.47 269.525C139.708 269.773 140.453 270.281 142.75 270.645C146.102 271.175 146.809 267.705 146.836 267.561L146.858 267.445L146.958 267.379C148.553 266.353 149.536 265.884 149.873 265.983C150.083 266.044 150.436 266.154 151.392 275.605C151.485 275.903 152.154 278.077 151.701 280.157C151.209 282.419 141.315 281.641 139.332 281.465C139.277 281.47 131.867 282 126.793 282H126.787Z" fill="#1159A8"/>
<path d="M182.537 242.799L172.726 248.913L181.407 262.821L191.218 256.708L182.537 242.799Z" fill="#F8A8AB"/>
<path d="M169.503 279.755C168.144 279.755 166.896 279.589 166.007 279.435C165.135 279.28 164.45 278.585 164.307 277.713C164.207 277.084 164.39 276.45 164.82 275.981L170.48 269.724L176.94 255.258L177.205 255.401C177.305 255.456 179.629 256.742 180.827 257.845C181.286 258.265 181.512 258.712 181.501 259.17C181.496 259.49 181.374 259.743 181.253 259.925C181.584 260.014 182.484 260.047 184.626 259.142C187.752 257.823 186.515 254.502 186.459 254.364L186.415 254.254L186.465 254.149C187.277 252.433 187.856 251.517 188.199 251.423C188.414 251.363 188.768 251.269 194.582 258.789C194.819 258.987 196.536 260.483 197.254 262.485C198.033 264.665 189.226 269.239 187.453 270.132C187.398 270.177 178.183 276.869 174.395 278.772C172.893 279.528 171.115 279.76 169.497 279.76L169.503 279.755Z" fill="#1159A8"/>
<path d="M158.128 118.611H125.755L122.817 148.702L135.672 259.887H152.198L145.589 195.671L172.396 253.647L187.083 243.373L166.151 189.249C166.151 189.249 173.627 142.098 167.752 130.352C161.877 118.605 158.128 118.611 158.128 118.611Z" fill="#1159A8"/>
<path d="M174.229 120.443H122.817L138.239 54.0254H160.64L174.229 120.443Z" fill="#00A2D3"/>
<path d="M110.046 52.7179C109.223 48.6792 110.73 44.9881 113.403 44.475C116.075 43.9619 118.908 46.8254 119.725 50.864C120.073 52.4751 120.018 54.1413 119.565 55.7303L122.817 72.8946L114.413 74.2243L112.1 57.1648C111.056 55.8627 110.355 54.3399 110.046 52.7179Z" fill="#F8A8AB"/>
<path d="M160.094 54.0255H140.337L127.019 80.641L121.994 60.6959L110.957 61.8656C110.957 61.8656 113.569 100.834 124.982 99.5156C136.395 98.197 163.015 63.0905 160.088 54.02H160.094V54.0255Z" fill="#00A2D3"/>
<path d="M178.751 180.267C177.222 180.267 175.549 179.891 173.903 179.522C172.683 179.246 171.606 179.18 170.739 179.124C169.431 179.042 168.393 178.975 167.818 178.209C167.25 177.453 167.25 176.167 167.818 173.629C168.575 170.258 170.259 164.879 172.324 160.454C174.985 154.744 177.547 152.117 179.933 152.652C183.13 153.37 184.405 158.699 184.88 161.817C185.543 166.164 185.488 171.329 184.737 174.666C183.743 179.091 181.462 180.261 178.751 180.261V180.267ZM179.336 153.579C177.581 153.579 175.427 156.139 173.224 160.879C171.192 165.237 169.53 170.534 168.79 173.855C168.31 175.985 168.26 177.149 168.619 177.624C168.923 178.027 169.712 178.076 170.811 178.142C171.711 178.198 172.827 178.269 174.124 178.562C179.276 179.715 182.5 180.134 183.776 174.457C185.14 168.371 184.102 154.606 179.723 153.624C179.596 153.596 179.469 153.579 179.342 153.579H179.336Z" fill="#DFDFE0"/>
<path d="M199.601 221.172L150.503 221.492L142.872 217.989L147.317 172.686L151.789 172.912L197.79 175.252L199.601 221.172Z" fill="#E2E3E4"/>
<path opacity="0.2" d="M150.503 221.492L142.872 217.989L147.317 172.686L151.789 172.912L150.503 221.492Z" fill="#272223"/>
<path d="M182.153 155.24C182.975 159.279 181.468 162.97 178.795 163.483C176.123 163.996 173.29 161.133 172.473 157.094C172.125 155.483 172.181 153.817 172.633 152.228L169.381 135.064L177.785 133.734L180.099 150.793C181.142 152.095 181.843 153.618 182.153 155.24Z" fill="#F8A8AB"/>
<path d="M148.83 54.0253C148.83 54.0253 160.055 53.5508 160.64 54.0253C163.705 56.5247 181.678 146.738 181.678 146.738H170.292L148.83 54.0253Z" fill="#00A2D3"/>
</g>
<defs>
<clipPath id="clip0_198_133">
<rect width="404" height="282" fill="white"/>
</clipPath>
</defs>
</svg>
