<svg width="152" height="148" viewBox="0 0 152 148" fill="none" xmlns="http://www.w3.org/2000/svg">
<path d="M128.807 147.62H22.9677C10.701 147.62 0.721191 137.629 0.721191 125.348V22.6006C0.721191 10.3199 10.701 0.328613 22.9677 0.328613H128.807C141.074 0.328613 151.053 10.3199 151.053 22.6006V125.348C151.053 137.629 141.074 147.62 128.807 147.62ZM22.9677 1.35901C11.2684 1.35901 1.75041 10.8879 1.75041 22.6006V125.348C1.75041 137.061 11.2684 146.589 22.9677 146.589H128.807C140.506 146.589 150.024 137.061 150.024 125.348V22.6006C150.024 10.8879 140.506 1.35901 128.807 1.35901H22.9677Z" fill="#3F3D56"/>
</svg>
