<svg xmlns="http://www.w3.org/2000/svg" shape-rendering="geometricPrecision" text-rendering="geometricPrecision" image-rendering="optimizeQuality" fill-rule="evenodd" clip-rule="evenodd" viewBox="0 0 505 511.568"><g fill-rule="nonzero"><path fill="#2B2A29" d="M255.211 356.15L102.02 507.058c-2.821 2.748-6.67 4.451-10.916 4.451l-74.119-.002c-.452.04-.91.061-1.374.061-8.621 0-15.611-6.99-15.611-15.61v-75.014c0-8.62 6.99-15.61 15.611-15.61h41.151v-46.838c0-8.62 6.99-15.61 15.61-15.61h46.753v-43.47h.023c-.002-6.644 4.278-12.8 10.954-14.879l37.147-11.549a187.9 187.9 0 01-2.909-5.863c-17.637-37.11-22.819-78.45-14.938-118.812 6.813-34.911 24.276-68.296 49.026-93.842 24.351-25.138 56.648-43.598 90.974-50.759 35.45-7.395 73.082-3.755 106.178 11.061 32.293 14.452 59.36 37.434 78.701 67.074C494.653 113.076 505 148.14 505 185.414c0 37.277-10.361 72.359-30.719 103.595-19.107 29.314-45.921 52.19-77.852 66.663l-.79.383a164.41 164.41 0 01-33.922 11.062c-35.675 7.505-73.111 3.619-106.506-10.967zm128.625-194.373c0-8.899-3.395-17.799-10.18-24.583-6.784-6.785-15.683-10.18-24.581-10.18s-17.798 3.395-24.583 10.18c-6.783 6.784-10.18 15.686-10.18 24.583 0 8.898 3.397 17.798 10.18 24.581 6.785 6.786 15.685 10.181 24.583 10.181 8.898 0 17.797-3.395 24.581-10.181 6.785-6.783 10.18-15.683 10.18-24.581z"/><path fill="#3CB2F2" d="M252.02 337.443c42.44 21.687 93.496 24.149 137.217 4.404 40.331-18.046 70.252-49.649 87.263-90.305 17.239-41.564 17.241-90.692.001-132.255-16.986-40.585-47.001-72.288-87.263-90.306-39.949-17.881-87.661-17.882-127.611 0-40.266 18.022-70.274 49.716-87.263 90.306-22.094 53.28-15.5 114.857 16.251 162.756l-55.88 17.373v59.081H72.372v62.447H15.61v75.014l75.494.001L252.02 337.443zm132.673-211.286c19.671 19.671 19.671 51.568 0 71.239-19.67 19.671-51.568 19.671-71.239 0-19.67-19.671-19.67-51.568 0-71.239 19.671-19.671 51.569-19.671 71.239 0z"/><path fill="#37A2DC" d="M252.019 337.444a165.091 165.091 0 0034.986 13.13c12.332 3.122 25.216 4.644 38.67 4.644 22.496 0 43.709-4.404 63.562-13.371 19.858-8.885 37.23-20.977 52.038-36.348 14.892-15.287 26.583-33.302 35.225-53.957 8.57-20.656 12.889-42.671 12.889-66.127.001-23.461-4.321-45.473-12.891-66.128-8.237-19.689-19.243-36.903-33.15-51.784 39.491 180.684-131.178 233.426-232.976 232.976L15.61 495.24v.718l75.494.001 160.915-158.515z"/></g></svg>