<svg width="16" height="16" viewBox="0 0 16 16" fill="none" xmlns="http://www.w3.org/2000/svg">
<path d="M14.364 5.29295C14.1765 5.10548 13.9221 5.00016 13.657 5.00016C13.3918 5.00016 13.1375 5.10548 12.95 5.29295L7.99998 10.243L3.04998 5.29295C2.86138 5.11079 2.60878 5.01 2.34658 5.01228C2.08438 5.01456 1.83357 5.11972 1.64816 5.30513C1.46276 5.49054 1.35759 5.74135 1.35531 6.00355C1.35303 6.26575 1.45382 6.51835 1.63598 6.70695L7.29298 12.364C7.48051 12.5514 7.73482 12.6567 7.99998 12.6567C8.26515 12.6567 8.51945 12.5514 8.70698 12.364L14.364 6.70695C14.5515 6.51942 14.6568 6.26512 14.6568 5.99995C14.6568 5.73479 14.5515 5.48048 14.364 5.29295Z" fill="#444444"/>
</svg>
