<svg width="270" height="268" viewBox="0 0 270 268" fill="none" xmlns="http://www.w3.org/2000/svg">
<g clip-path="url(#clip0_198_207)">
<path d="M270 267.387C270 267.727 269.727 268 269.388 268H0.612385C0.272758 268 0 267.727 0 267.387C0 267.047 0.272758 266.774 0.612385 266.774H269.388C269.727 266.774 270 267.047 270 267.387Z" fill="#3F3D56"/>
<path d="M186.567 237.537L189.655 250.417L180.392 252.993L178.334 239.083L186.567 237.537Z" fill="#FFB6B6"/>
<path d="M201.491 195.806L191.713 204.049L185.538 213.838L194.286 219.505L209.21 202.503L201.491 195.806Z" fill="#FFB6B6"/>
<path d="M198.403 110.798L206.637 138.619C206.637 138.619 243.174 170.561 239.572 177.258C235.97 183.956 211.783 202.503 211.783 202.503C211.783 202.503 213.578 208.434 208.307 205.984C203.035 203.534 197.374 196.836 197.374 196.836C197.374 196.836 197.374 191.684 199.947 192.714C202.52 193.745 214.356 179.834 214.356 179.834L188.626 156.135V235.381C188.626 235.381 194.801 240.786 188.626 241.222C182.451 241.658 176.79 242.689 176.79 242.689C176.79 242.689 169.585 240.113 172.158 237.537L164.439 195.29L158.779 143.771L162.895 116.98L198.403 110.798Z" fill="#1159A8"/>
<path d="M181.936 248.871C181.936 248.871 182.451 246.811 184.509 246.811H190.796C190.796 246.811 192.743 255.569 192.228 255.569C191.714 255.569 200.462 266.903 191.199 267.418C181.936 267.934 179.363 266.903 179.363 266.903L178.334 262.836C178.334 262.836 176.79 260.206 177.304 258.145C177.819 256.084 181.936 248.871 181.936 248.871Z" fill="#1159A8"/>
<path d="M194.801 215.384C194.801 215.384 200.712 215.29 199.3 216.883C197.889 218.475 195.316 221.051 195.316 221.051C195.316 221.051 189.195 233.416 186.337 231.097C183.48 228.779 178.848 203.019 180.392 199.928C181.936 196.836 183.994 196.836 183.994 196.836L193.489 202.553C193.489 202.553 187.597 216.929 194.801 215.384Z" fill="#1159A8"/>
<path d="M180.392 67.0061L182.45 54.1262L168.556 48.459L166.498 68.0365L180.392 67.0061Z" fill="#FFB6B6"/>
<path opacity="0.1" d="M180.392 67.0061L182.45 54.1262L168.556 48.459L166.498 68.0365L180.392 67.0061Z" fill="black"/>
<path d="M165.726 65.2031L182.193 61.0815L199.69 66.7487C199.69 66.7487 207.409 88.3871 204.836 96.1151C202.263 103.843 202.263 118.938 202.263 118.938C202.263 118.938 202.006 112.344 187.082 116.981C172.158 121.617 161.352 121.102 161.352 121.102L160.837 102.555L154.372 86.0806C151.609 79.039 154.587 71.0442 161.281 67.5337L165.726 65.2031Z" fill="#E6E6E6"/>
<path d="M241.319 125.895C243.642 128.682 244.09 132.141 242.318 133.621C240.546 135.101 237.226 134.042 234.902 131.254C233.959 130.153 233.292 128.841 232.958 127.429L223.262 115.496L227.985 111.669L237.907 123.295C239.236 123.876 240.405 124.768 241.319 125.895Z" fill="#FFB6B6"/>
<path d="M198.942 66.9131L195.567 80.296L212.085 106.766L228.947 123.732L234.412 119.193L217.406 98.0098L204.516 70.7159L198.942 66.9131Z" fill="#E6E6E6"/>
<path d="M238.263 53.9956C250.026 53.1253 258.67 40.343 257.57 25.4455C256.47 10.5479 246.043 -0.823442 234.281 0.0468164C222.518 0.917075 213.874 13.6994 214.974 28.5969C216.073 43.4945 226.5 54.8658 238.263 53.9956Z" fill="#00A2D3"/>
<path d="M237.816 53.9956H236.786V156.746H237.816V53.9956Z" fill="#1159A8"/>
<path d="M238.072 51.8262L238.195 55.4671L239.839 58.8376L232.982 58.4875L235.864 55.5851L235.538 52.2768L238.072 51.8262Z" fill="#00A2D3"/>
<path d="M176.881 58.267C184.706 58.267 191.05 51.916 191.05 44.0817C191.05 36.2474 184.706 29.8965 176.881 29.8965C169.056 29.8965 162.712 36.2474 162.712 44.0817C162.712 51.916 169.056 58.267 176.881 58.267Z" fill="#FFB6B6"/>
<path d="M175.75 25.0105C176.16 25.2501 176.709 24.8876 176.841 24.4309C176.972 23.9742 176.819 23.4893 176.667 23.039L175.903 20.7721C175.36 19.1643 174.785 17.5004 173.611 16.2767C171.838 14.4297 169.022 13.9599 166.486 14.3003C163.23 14.7374 160.017 16.5026 158.503 19.4216C156.989 22.3406 157.634 26.4137 160.369 28.2349C156.47 32.7089 155.111 37.6952 155.326 43.6289C155.54 49.5625 161.999 55.0235 166.211 59.2035C167.152 58.6327 168.007 55.9575 167.49 54.9856C166.973 54.0137 167.714 52.8878 167.073 51.9926C166.433 51.0974 165.897 52.5228 166.544 51.6327C166.953 51.0711 165.358 49.7789 165.965 49.4427C168.904 47.8167 169.881 44.1502 171.726 41.3425C173.952 37.9558 177.762 35.6623 181.793 35.2818C184.014 35.0722 186.36 35.4519 188.18 36.7426C190 38.0334 191.179 40.34 190.757 42.5329C191.85 41.4217 192.394 39.7931 192.189 38.2469C191.984 36.7008 191.033 35.271 189.688 34.4842C190.506 31.7762 189.805 28.6613 187.907 26.5657C186.008 24.4702 178.307 24.8271 175.536 25.3786" fill="#1159A8"/>
<path d="M175.32 35.3643C171.649 35.761 168.998 38.9445 166.76 41.8844C165.47 43.5789 164.119 45.4502 164.151 47.5805C164.184 49.7343 165.622 51.5817 166.31 53.6228C167.433 56.9592 166.338 60.9286 163.664 63.2147C166.307 63.7168 169.164 61.7328 169.62 59.0787C170.151 55.9889 167.811 53.0068 168.089 49.8839C168.333 47.1326 170.498 45.0151 172.339 42.958C174.181 40.9008 175.91 38.171 175.063 35.5423" fill="#1159A8"/>
<path d="M161.807 120.844H55.9675C43.9653 120.844 34.2356 130.585 34.2356 142.601V245.348C34.2356 257.364 43.9653 267.105 55.9675 267.105H161.807C173.809 267.105 183.538 257.364 183.538 245.348V142.601C183.538 130.585 173.809 120.844 161.807 120.844Z" fill="white"/>
<path d="M161.807 267.62H55.9677C43.701 267.62 33.7212 257.629 33.7212 245.348V142.601C33.7212 130.32 43.701 120.329 55.9677 120.329H161.807C174.074 120.329 184.053 130.32 184.053 142.601V245.348C184.053 257.629 174.074 267.62 161.807 267.62ZM55.9677 121.359C44.2684 121.359 34.7504 130.888 34.7504 142.601V245.348C34.7504 257.061 44.2684 266.589 55.9677 266.589H161.807C173.506 266.589 183.024 257.061 183.024 245.348V142.601C183.024 130.888 173.506 121.359 161.807 121.359H55.9677Z" fill="#3F3D56"/>
<path d="M150.639 130.952C151.994 130.952 153.093 129.852 153.093 128.495C153.093 127.138 151.994 126.038 150.639 126.038C149.284 126.038 148.185 127.138 148.185 128.495C148.185 129.852 149.284 130.952 150.639 130.952Z" fill="#3F3D56"/>
<path d="M157.388 130.952C158.743 130.952 159.842 129.852 159.842 128.495C159.842 127.138 158.743 126.038 157.388 126.038C156.033 126.038 154.934 127.138 154.934 128.495C154.934 129.852 156.033 130.952 157.388 130.952Z" fill="#3F3D56"/>
<path d="M164.137 130.952C165.492 130.952 166.591 129.852 166.591 128.495C166.591 127.138 165.492 126.038 164.137 126.038C162.782 126.038 161.683 127.138 161.683 128.495C161.683 129.852 162.782 130.952 164.137 130.952Z" fill="#3F3D56"/>
<path d="M52.4979 231.134C51.7355 231.134 51.1152 231.755 51.1152 232.519C51.1152 232.891 51.2588 233.235 51.5194 233.489C51.7823 233.759 52.1266 233.903 52.4979 233.903H163.19C163.952 233.903 164.572 233.282 164.572 232.519C164.572 232.146 164.429 231.802 164.168 231.548C163.905 231.278 163.561 231.134 163.19 231.134H52.4979Z" fill="#E6E6E6"/>
<path d="M111.686 230.673V234.364H52.4982C51.9912 234.364 51.5303 234.161 51.1984 233.82C50.8573 233.488 50.6545 233.026 50.6545 232.519C50.6545 231.503 51.4842 230.673 52.4982 230.673L111.686 230.673Z" fill="#00A2D3"/>
<path d="M160.885 223.751H142.449C140.416 223.751 138.762 222.096 138.762 220.06C138.762 218.024 140.416 216.368 142.449 216.368H160.885C162.918 216.368 164.572 218.024 164.572 220.06C164.572 222.096 162.918 223.751 160.885 223.751Z" fill="#E6E6E6"/>
<path d="M91.6234 226.39L78.7355 183.037L77.749 183.33L90.5916 226.531" fill="#1159A8"/>
<path d="M92.0693 127.726C103.832 126.856 112.476 114.073 111.376 99.1759C110.277 84.2784 99.8497 72.907 88.087 73.7773C76.3243 74.6475 67.6803 87.4299 68.7799 102.327C69.8796 117.225 80.3066 128.596 92.0693 127.726Z" fill="#00A2D3"/>
<path d="M91.622 127.726H90.5928V230.476H91.622V127.726Z" fill="#1159A8"/>
<path d="M79.3146 181.781L80.47 185.235L83.0053 187.997L76.3335 189.619L78.2693 186.014L77.0148 182.936L79.3146 181.781Z" fill="#00A2D3"/>
<path d="M91.8782 125.557L92.0016 129.198L93.6452 132.568L86.7883 132.218L89.6706 129.316L89.3448 126.007L91.8782 125.557Z" fill="#00A2D3"/>
<path d="M79.6613 182.686C90.6776 178.467 95.2862 163.737 89.9551 149.785C84.6239 135.832 71.3718 127.942 60.3556 132.161C49.3393 136.38 44.7307 151.111 50.0618 165.063C55.393 179.015 68.6451 186.905 79.6613 182.686Z" fill="#00A2D3"/>
<path d="M173.171 115.57C176.642 116.619 178.915 119.263 178.248 121.475C177.581 123.686 174.226 124.628 170.753 123.578C169.361 123.178 168.084 122.449 167.03 121.453L152.377 116.822L154.222 111.025L168.894 115.276C170.322 115.031 171.789 115.131 173.171 115.57Z" fill="#FFB6B6"/>
<path d="M147.714 77.5678L163.153 66.2334L162.638 87.8717L148.229 106.419L163.667 112.601L163.153 121.429C163.153 121.429 143.597 116.723 140.51 116.208C137.422 115.692 134.849 108.48 134.849 108.48L147.714 77.5678Z" fill="#E6E6E6"/>
</g>
<defs>
<clipPath id="clip0_198_207">
<rect width="270" height="268" fill="white"/>
</clipPath>
</defs>
</svg>
